<?xml version="1.0" encoding="utf-8"?>
<!-- Generator: Adobe Illustrator 23.0.6, SVG Export Plug-In . SVG Version: 6.00 Build 0)  -->
<svg version="1.1" id="Capa_1" xmlns="http://www.w3.org/2000/svg" xmlns:xlink="http://www.w3.org/1999/xlink" x="0px" y="0px"
	 viewBox="0 0 403.8 403.8" style="enable-background:new 0 0 403.8 403.8;" xml:space="preserve">
<style type="text/css">
	.st0{fill:url(#SVGID_1_);stroke:#000000;stroke-miterlimit:10;}
	.st1{fill:url(#SVGID_2_);stroke:#000000;stroke-miterlimit:10;}
	.st2{fill:url(#SVGID_3_);stroke:#000000;stroke-miterlimit:10;}
	.st3{fill:url(#SVGID_4_);stroke:#000000;stroke-miterlimit:10;}
	.st4{fill:url(#SVGID_5_);stroke:#000000;stroke-miterlimit:10;}
	.st5{fill:url(#SVGID_6_);stroke:#000000;stroke-miterlimit:10;}
	.st6{fill:url(#SVGID_7_);stroke:#000000;stroke-miterlimit:10;}
	.st7{fill:url(#SVGID_8_);stroke:#000000;stroke-miterlimit:10;}
	.st8{fill:url(#SVGID_9_);stroke:#000000;stroke-miterlimit:10;}
	.st9{fill:url(#SVGID_10_);stroke:#000000;stroke-miterlimit:10;}
	.st10{fill:url(#SVGID_11_);stroke:#000000;stroke-miterlimit:10;}
	.st11{fill:url(#SVGID_12_);stroke:#000000;stroke-miterlimit:10;}
	.st12{fill:url(#SVGID_13_);stroke:#000000;stroke-miterlimit:10;}
	.st13{fill:url(#SVGID_14_);stroke:#000000;stroke-miterlimit:10;}
	.st14{fill:url(#SVGID_15_);stroke:#000000;stroke-miterlimit:10;}
</style>
<linearGradient id="SVGID_1_" gradientUnits="userSpaceOnUse" x1="0" y1="201.9208" x2="403.8416" y2="201.9208">
	<stop  offset="0" style="stop-color:#2D2E83"/>
	<stop  offset="1" style="stop-color:#BE1622"/>
</linearGradient>
<circle class="st0" cx="201.9" cy="201.9" r="201.9"/>
<g>
	<linearGradient id="SVGID_2_" gradientUnits="userSpaceOnUse" x1="77.8163" y1="146.9208" x2="103.8163" y2="146.9208">
		<stop  offset="0" style="stop-color:#FFEF26"/>
		<stop  offset="5.948725e-02" style="stop-color:#FFE000"/>
		<stop  offset="0.1303" style="stop-color:#FFD300"/>
		<stop  offset="0.2032" style="stop-color:#FECB00"/>
		<stop  offset="0.2809" style="stop-color:#FDC800"/>
		<stop  offset="0.6685" style="stop-color:#F18F34"/>
		<stop  offset="0.8876" style="stop-color:#E95F32"/>
		<stop  offset="1" style="stop-color:#E3312D"/>
	</linearGradient>
	<rect x="77.8" y="92.9" class="st1" width="26" height="108"/>
	<linearGradient id="SVGID_3_" gradientUnits="userSpaceOnUse" x1="126.019" y1="281.3543" x2="152.0244" y2="281.3543">
		<stop  offset="0" style="stop-color:#FFEF26"/>
		<stop  offset="5.948725e-02" style="stop-color:#FFE000"/>
		<stop  offset="0.1303" style="stop-color:#FFD300"/>
		<stop  offset="0.2032" style="stop-color:#FECB00"/>
		<stop  offset="0.2809" style="stop-color:#FDC800"/>
		<stop  offset="0.6685" style="stop-color:#F18F34"/>
		<stop  offset="0.8876" style="stop-color:#E95F32"/>
		<stop  offset="1" style="stop-color:#E3312D"/>
	</linearGradient>
	<path class="st2" d="M146.7,335.4h-15.4c-2.9,0-5.3-2.4-5.3-5.3v-94.5c0-4.6,3.7-8.3,8.3-8.3h12.5c2.9,0,5.3,2.4,5.3,5.3v97.4
		C152,333,149.7,335.4,146.7,335.4z"/>
	<linearGradient id="SVGID_4_" gradientUnits="userSpaceOnUse" x1="175.3506" y1="281.3543" x2="201.3506" y2="281.3543">
		<stop  offset="0" style="stop-color:#FFEF26"/>
		<stop  offset="5.948725e-02" style="stop-color:#FFE000"/>
		<stop  offset="0.1303" style="stop-color:#FFD300"/>
		<stop  offset="0.2032" style="stop-color:#FECB00"/>
		<stop  offset="0.2809" style="stop-color:#FDC800"/>
		<stop  offset="0.6685" style="stop-color:#F18F34"/>
		<stop  offset="0.8876" style="stop-color:#E95F32"/>
		<stop  offset="1" style="stop-color:#E3312D"/>
	</linearGradient>
	<path class="st3" d="M195.3,335.4h-13.8c-3.4,0-6.1-2.7-6.1-6.1v-95.8c0-3.4,2.7-6.1,6.1-6.1h13.8c3.4,0,6.1,2.7,6.1,6.1v95.8
		C201.4,332.6,198.6,335.4,195.3,335.4z"/>
	<linearGradient id="SVGID_5_" gradientUnits="userSpaceOnUse" x1="206.0087" y1="147.9208" x2="264.8334" y2="147.9208">
		<stop  offset="0" style="stop-color:#FFEF26"/>
		<stop  offset="5.948725e-02" style="stop-color:#FFE000"/>
		<stop  offset="0.1303" style="stop-color:#FFD300"/>
		<stop  offset="0.2032" style="stop-color:#FECB00"/>
		<stop  offset="0.2809" style="stop-color:#FDC800"/>
		<stop  offset="0.6685" style="stop-color:#F18F34"/>
		<stop  offset="0.8876" style="stop-color:#E95F32"/>
		<stop  offset="1" style="stop-color:#E3312D"/>
	</linearGradient>
	<path class="st4" d="M220.2,199.9l-9-3.5c-4.2-1.7-6.3-6.4-4.6-10.6l33.5-85.3c1.7-4.2,6.4-6.3,10.6-4.6l9,3.5
		c4.2,1.7,6.3,6.4,4.6,10.6l-33.5,85.3C229.1,199.5,224.4,201.6,220.2,199.9z"/>
	<linearGradient id="SVGID_6_" gradientUnits="userSpaceOnUse" x1="158.2247" y1="146.9208" x2="216.1335" y2="146.9208">
		<stop  offset="0" style="stop-color:#FFEF26"/>
		<stop  offset="5.948725e-02" style="stop-color:#FFE000"/>
		<stop  offset="0.1303" style="stop-color:#FFD300"/>
		<stop  offset="0.2032" style="stop-color:#FECB00"/>
		<stop  offset="0.2809" style="stop-color:#FDC800"/>
		<stop  offset="0.6685" style="stop-color:#F18F34"/>
		<stop  offset="0.8876" style="stop-color:#E95F32"/>
		<stop  offset="1" style="stop-color:#E3312D"/>
	</linearGradient>
	<path class="st5" d="M210.1,195.9l-6.5,2.5c-4.9,1.9-10.4-0.5-12.3-5.4l-32.4-82.9c-1.9-4.9,0.5-10.4,5.4-12.3l6.5-2.5
		c4.9-1.9,10.4,0.5,12.3,5.4l32.4,82.9C217.4,188.5,215,194,210.1,195.9z"/>
	<linearGradient id="SVGID_7_" gradientUnits="userSpaceOnUse" x1="77.8163" y1="189.4208" x2="149.8163" y2="189.4208">
		<stop  offset="0" style="stop-color:#FFEF26"/>
		<stop  offset="5.948725e-02" style="stop-color:#FFE000"/>
		<stop  offset="0.1303" style="stop-color:#FFD300"/>
		<stop  offset="0.2032" style="stop-color:#FECB00"/>
		<stop  offset="0.2809" style="stop-color:#FDC800"/>
		<stop  offset="0.6685" style="stop-color:#F18F34"/>
		<stop  offset="0.8876" style="stop-color:#E95F32"/>
		<stop  offset="1" style="stop-color:#E3312D"/>
	</linearGradient>
	<path class="st6" d="M143.3,200.9H84.4c-3.6,0-6.5-2.9-6.5-6.5v-9.9c0-3.6,2.9-6.5,6.5-6.5h58.9c3.6,0,6.5,2.9,6.5,6.5v9.9
		C149.8,198,146.9,200.9,143.3,200.9z"/>
	<linearGradient id="SVGID_8_" gradientUnits="userSpaceOnUse" x1="275.5497" y1="262.4583" x2="298.5497" y2="262.4583">
		<stop  offset="0" style="stop-color:#FFEF26"/>
		<stop  offset="5.948725e-02" style="stop-color:#FFE000"/>
		<stop  offset="0.1303" style="stop-color:#FFD300"/>
		<stop  offset="0.2032" style="stop-color:#FECB00"/>
		<stop  offset="0.2809" style="stop-color:#FDC800"/>
		<stop  offset="0.6685" style="stop-color:#F18F34"/>
		<stop  offset="0.8876" style="stop-color:#E95F32"/>
		<stop  offset="1" style="stop-color:#E3312D"/>
	</linearGradient>
	<path class="st7" d="M275.5,291v-57.1c0-4.6,3.7-8.3,8.3-8.3h6.3c4.6,0,8.3,3.7,8.3,8.3V291c0,4.6-3.7,8.3-8.3,8.3h-6.3
		C279.3,299.4,275.5,295.6,275.5,291z"/>
	<linearGradient id="SVGID_9_" gradientUnits="userSpaceOnUse" x1="225.2081" y1="237.4583" x2="298.5497" y2="237.4583">
		<stop  offset="0" style="stop-color:#FFEF26"/>
		<stop  offset="5.948725e-02" style="stop-color:#FFE000"/>
		<stop  offset="0.1303" style="stop-color:#FFD300"/>
		<stop  offset="0.2032" style="stop-color:#FECB00"/>
		<stop  offset="0.2809" style="stop-color:#FDC800"/>
		<stop  offset="0.6685" style="stop-color:#F18F34"/>
		<stop  offset="0.8876" style="stop-color:#E95F32"/>
		<stop  offset="1" style="stop-color:#E3312D"/>
	</linearGradient>
	<path class="st8" d="M289.9,249.4h-56.1c-4.8,0-8.6-3.9-8.6-8.6v-6.6c0-4.8,3.9-8.6,8.6-8.6h56.1c4.8,0,8.6,3.9,8.6,8.6v6.6
		C298.5,245.5,294.7,249.4,289.9,249.4z"/>
	<linearGradient id="SVGID_10_" gradientUnits="userSpaceOnUse" x1="127.4195" y1="323.8543" x2="199.4195" y2="323.8543">
		<stop  offset="0" style="stop-color:#FFEF26"/>
		<stop  offset="5.948725e-02" style="stop-color:#FFE000"/>
		<stop  offset="0.1303" style="stop-color:#FFD300"/>
		<stop  offset="0.2032" style="stop-color:#FECB00"/>
		<stop  offset="0.2809" style="stop-color:#FDC800"/>
		<stop  offset="0.6685" style="stop-color:#F18F34"/>
		<stop  offset="0.8876" style="stop-color:#E95F32"/>
		<stop  offset="1" style="stop-color:#E3312D"/>
	</linearGradient>
	<path class="st9" d="M187.9,335.4h-49c-6.4,0-11.5-5.1-11.5-11.5v0c0-6.4,5.1-11.5,11.5-11.5h49c6.4,0,11.5,5.1,11.5,11.5v0
		C199.4,330.2,194.3,335.4,187.9,335.4z"/>
	<linearGradient id="SVGID_11_" gradientUnits="userSpaceOnUse" x1="192.9208" y1="193.9285" x2="229.7857" y2="193.9285">
		<stop  offset="0" style="stop-color:#FFEF26"/>
		<stop  offset="5.948725e-02" style="stop-color:#FFE000"/>
		<stop  offset="0.1303" style="stop-color:#FFD300"/>
		<stop  offset="0.2032" style="stop-color:#FECB00"/>
		<stop  offset="0.2809" style="stop-color:#FDC800"/>
		<stop  offset="0.6685" style="stop-color:#F18F34"/>
		<stop  offset="0.8876" style="stop-color:#E95F32"/>
		<stop  offset="1" style="stop-color:#E3312D"/>
	</linearGradient>
	<path class="st10" d="M221.9,202.9h-21c-4.4,0-7.9-3.5-7.9-7.9v-2.2c0-4.4,3.5-7.9,7.9-7.9h21c4.4,0,7.9,3.5,7.9,7.9v2.2
		C229.8,199.4,226.2,202.9,221.9,202.9z"/>
	<linearGradient id="SVGID_12_" gradientUnits="userSpaceOnUse" x1="283.3163" y1="146.9208" x2="309.3163" y2="146.9208">
		<stop  offset="0" style="stop-color:#FFEF26"/>
		<stop  offset="5.948725e-02" style="stop-color:#FFE000"/>
		<stop  offset="0.1303" style="stop-color:#FFD300"/>
		<stop  offset="0.2032" style="stop-color:#FECB00"/>
		<stop  offset="0.2809" style="stop-color:#FDC800"/>
		<stop  offset="0.6685" style="stop-color:#F18F34"/>
		<stop  offset="0.8876" style="stop-color:#E95F32"/>
		<stop  offset="1" style="stop-color:#E3312D"/>
	</linearGradient>
	<rect x="283.3" y="92.9" class="st11" width="26" height="108"/>
	<linearGradient id="SVGID_13_" gradientUnits="userSpaceOnUse" x1="225.6874" y1="281.3543" x2="251.6874" y2="281.3543">
		<stop  offset="0" style="stop-color:#FFEF26"/>
		<stop  offset="5.948725e-02" style="stop-color:#FFE000"/>
		<stop  offset="0.1303" style="stop-color:#FFD300"/>
		<stop  offset="0.2032" style="stop-color:#FECB00"/>
		<stop  offset="0.2809" style="stop-color:#FDC800"/>
		<stop  offset="0.6685" style="stop-color:#F18F34"/>
		<stop  offset="0.8876" style="stop-color:#E95F32"/>
		<stop  offset="1" style="stop-color:#E3312D"/>
	</linearGradient>
	<path class="st12" d="M244.2,335.4h-11c-4.1,0-7.5-3.4-7.5-7.5v-93c0-4.1,3.4-7.5,7.5-7.5h11c4.1,0,7.5,3.4,7.5,7.5v93
		C251.7,332,248.3,335.4,244.2,335.4z"/>
	<linearGradient id="SVGID_14_" gradientUnits="userSpaceOnUse" x1="283.3163" y1="189.4208" x2="355.3163" y2="189.4208">
		<stop  offset="0" style="stop-color:#FFEF26"/>
		<stop  offset="5.948725e-02" style="stop-color:#FFE000"/>
		<stop  offset="0.1303" style="stop-color:#FFD300"/>
		<stop  offset="0.2032" style="stop-color:#FECB00"/>
		<stop  offset="0.2809" style="stop-color:#FDC800"/>
		<stop  offset="0.6685" style="stop-color:#F18F34"/>
		<stop  offset="0.8876" style="stop-color:#E95F32"/>
		<stop  offset="1" style="stop-color:#E3312D"/>
	</linearGradient>
	<path class="st13" d="M348.2,200.9h-57.8c-3.9,0-7.1-3.2-7.1-7.1V185c0-3.9,3.2-7.1,7.1-7.1h57.8c3.9,0,7.1,3.2,7.1,7.1v8.8
		C355.3,197.7,352.1,200.9,348.2,200.9z"/>
	<linearGradient id="SVGID_15_" gradientUnits="userSpaceOnUse" x1="226.6874" y1="287.8543" x2="298.6874" y2="287.8543">
		<stop  offset="0" style="stop-color:#FFEF26"/>
		<stop  offset="5.948725e-02" style="stop-color:#FFE000"/>
		<stop  offset="0.1303" style="stop-color:#FFD300"/>
		<stop  offset="0.2032" style="stop-color:#FECB00"/>
		<stop  offset="0.2809" style="stop-color:#FDC800"/>
		<stop  offset="0.6685" style="stop-color:#F18F34"/>
		<stop  offset="0.8876" style="stop-color:#E95F32"/>
		<stop  offset="1" style="stop-color:#E3312D"/>
	</linearGradient>
	<path class="st14" d="M288.6,299.4h-51.7c-5.6,0-10.1-4.5-10.1-10.1v-2.7c0-5.6,4.5-10.1,10.1-10.1h51.7c5.6,0,10.1,4.5,10.1,10.1
		v2.7C298.7,294.8,294.1,299.4,288.6,299.4z"/>
</g>
</svg>
